<svg width="33" height="32" viewBox="0 0 33 32" fill="none" xmlns="http://www.w3.org/2000/svg">
<rect x="0.142578" width="32" height="32" fill="#333333"/>
<path fill-rule="evenodd" clip-rule="evenodd" d="M16.6225 10C13.0315 10 10.1426 12.889 10.1426 16.4799C10.1426 19.3419 12.0055 21.7718 14.5705 22.6358C14.8945 22.6898 15.0025 22.5008 15.0025 22.3118C15.0025 22.1498 15.0025 21.7448 15.0025 21.2048C13.1935 21.6098 12.8155 20.3408 12.8155 20.3408C12.5185 19.5848 12.0865 19.3959 12.0865 19.3959C11.4926 18.9909 12.1405 18.9909 12.1405 18.9909C12.7885 19.0449 13.1395 19.6658 13.1395 19.6658C13.7065 20.6648 14.6515 20.3678 15.0295 20.2058C15.0835 19.7738 15.2455 19.5038 15.4345 19.3419C14.0035 19.1799 12.4915 18.6129 12.4915 16.1289C12.4915 15.4269 12.7345 14.8329 13.1665 14.4009C13.1125 14.2389 12.8695 13.5909 13.2205 12.673C13.2205 12.673 13.7605 12.511 15.0025 13.3479C15.5155 13.2129 16.0825 13.1319 16.6225 13.1319C17.1625 13.1319 17.7295 13.2129 18.2424 13.3479C19.4844 12.511 20.0244 12.673 20.0244 12.673C20.3754 13.5639 20.1594 14.2119 20.0784 14.4009C20.4834 14.8599 20.7534 15.4269 20.7534 16.1289C20.7534 18.6129 19.2414 19.1529 17.7835 19.3148C18.0265 19.5038 18.2154 19.9088 18.2154 20.5028C18.2154 21.3668 18.2154 22.0688 18.2154 22.2848C18.2154 22.4468 18.3234 22.6628 18.6744 22.6088C21.2394 21.7718 23.1024 19.3419 23.1024 16.4799C23.1024 12.889 20.2134 10 16.6225 10Z" fill="white"/>
</svg>
