<svg width="33" height="32" viewBox="0 0 33 32" fill="none" xmlns="http://www.w3.org/2000/svg">
<rect x="0.285156" width="32" height="32" fill="#333333"/>
<path d="M16.0594 10.2206C17.8681 10.2206 18.0823 10.2274 18.7968 10.26C19.2264 10.2653 19.6519 10.3441 20.0548 10.4932C20.347 10.6059 20.6124 10.7785 20.8339 11C21.0553 11.2215 21.228 11.4868 21.3406 11.779C21.4897 12.182 21.5686 12.6075 21.5739 13.0371C21.6061 13.7516 21.6132 13.9658 21.6132 15.7745C21.6132 17.5832 21.6064 17.7974 21.5739 18.5119C21.5686 18.9415 21.4897 19.3671 21.3406 19.77C21.228 20.0622 21.0553 20.3276 20.8339 20.549C20.6124 20.7705 20.347 20.9431 20.0548 21.0558C19.6519 21.2049 19.2264 21.2838 18.7968 21.289C18.0826 21.3213 17.8684 21.3284 16.0594 21.3284C14.2503 21.3284 14.0361 21.3216 13.3219 21.289C12.8923 21.2838 12.4668 21.2049 12.0639 21.0558C11.7717 20.9431 11.5063 20.7705 11.2848 20.549C11.0634 20.3276 10.8908 20.0622 10.7781 19.77C10.629 19.3671 10.5501 18.9415 10.5448 18.5119C10.5126 17.7974 10.5055 17.5832 10.5055 15.7745C10.5055 13.9658 10.5123 13.7516 10.5448 13.0371C10.5501 12.6075 10.629 12.182 10.7781 11.779C10.8908 11.4868 11.0634 11.2215 11.2848 11C11.5063 10.7785 11.7717 10.6059 12.0639 10.4932C12.4668 10.3441 12.8923 10.2653 13.3219 10.26C14.0364 10.2277 14.2506 10.2206 16.0594 10.2206ZM16.0594 9C14.2206 9 13.989 9.00774 13.2664 9.04065C12.7042 9.05183 12.1479 9.15828 11.6213 9.35548C11.1695 9.5257 10.7603 9.79244 10.4223 10.1371C10.0773 10.4753 9.81032 10.8847 9.63999 11.3368C9.4428 11.8634 9.33634 12.4197 9.32516 12.9819C9.2929 13.7039 9.28516 13.9355 9.28516 15.7742C9.28516 17.6129 9.2929 17.8445 9.3258 18.5671C9.33698 19.1293 9.44344 19.6856 9.64064 20.2123C9.81077 20.6643 10.0775 21.0737 10.4223 21.4119C10.7605 21.7567 11.1699 22.0234 11.6219 22.1935C12.1486 22.3907 12.7048 22.4972 13.2671 22.5084C13.9897 22.5406 14.2203 22.549 16.06 22.549C17.8997 22.549 18.1303 22.5413 18.8529 22.5084C19.4151 22.4972 19.9714 22.3907 20.4981 22.1935C20.9479 22.0192 21.3564 21.7528 21.6975 21.4116C22.0385 21.0703 22.3046 20.6616 22.4787 20.2116C22.6759 19.685 22.7824 19.1287 22.7935 18.5665C22.8258 17.8445 22.8335 17.6129 22.8335 15.7742C22.8335 13.9355 22.8258 13.7039 22.7929 12.9813C22.7817 12.419 22.6753 11.8628 22.4781 11.3361C22.3079 10.8841 22.0412 10.4747 21.6964 10.1365C21.3582 9.79172 20.9488 9.52497 20.4968 9.35484C19.9701 9.15764 19.4139 9.05118 18.8516 9.04C18.1297 9.00774 17.8981 9 16.0594 9Z" fill="white"/>
<path d="M16.0607 12.2969C15.3727 12.2969 14.7001 12.5009 14.1281 12.8831C13.556 13.2654 13.1101 13.8087 12.8468 14.4443C12.5835 15.08 12.5146 15.7794 12.6489 16.4542C12.7831 17.1291 13.1144 17.7489 13.6009 18.2354C14.0874 18.7219 14.7073 19.0532 15.3821 19.1875C16.0569 19.3217 16.7563 19.2528 17.392 18.9895C18.0276 18.7262 18.5709 18.2803 18.9532 17.7083C19.3354 17.1362 19.5395 16.4636 19.5395 15.7756C19.5395 14.853 19.1729 13.9682 18.5206 13.3158C17.8682 12.6634 16.9834 12.2969 16.0607 12.2969ZM16.0607 18.0336C15.6141 18.0336 15.1776 17.9012 14.8062 17.6531C14.4349 17.405 14.1455 17.0523 13.9746 16.6397C13.8037 16.2271 13.7589 15.7731 13.8461 15.3351C13.9332 14.897 14.1483 14.4947 14.464 14.1789C14.7798 13.8631 15.1822 13.648 15.6202 13.5609C16.0582 13.4738 16.5123 13.5185 16.9249 13.6894C17.3375 13.8603 17.6901 14.1497 17.9383 14.5211C18.1864 14.8924 18.3188 15.329 18.3188 15.7756C18.3188 16.3745 18.0809 16.9488 17.6574 17.3723C17.234 17.7957 16.6596 18.0336 16.0607 18.0336Z" fill="white"/>
<path d="M19.6762 12.9715C20.1251 12.9715 20.4891 12.6076 20.4891 12.1586C20.4891 11.7097 20.1251 11.3457 19.6762 11.3457C19.2272 11.3457 18.8633 11.7097 18.8633 12.1586C18.8633 12.6076 19.2272 12.9715 19.6762 12.9715Z" fill="white"/>
</svg>
