<svg width="242" height="77" viewBox="0 0 242 77" fill="none" xmlns="http://www.w3.org/2000/svg">
<path d="M72 38.5C72 32.3148 70.2876 26.2504 67.0526 20.9786C63.8176 15.7069 59.1862 11.4337 53.6717 8.63248" stroke="#FBBC05" stroke-width="10" stroke-linecap="round" stroke-linejoin="round"/>
<path d="M72 38.5C72 45.7977 69.617 52.8957 65.2134 58.715C60.8097 64.5343 54.6263 68.7564 47.6032 70.7394C40.5802 72.7225 33.1016 72.358 26.3047 69.7014C19.5078 67.0447 13.7643 62.2413 9.94739 56.0214C6.13052 49.8015 4.4491 42.5053 5.15878 35.2422C5.86846 27.9791 8.93041 21.1465 13.8791 15.783C18.8278 10.4196 25.3925 6.81879 32.5751 5.52811C39.7577 4.23743 47.1654 5.32746 53.6717 8.63248" stroke="#4285F4" stroke-width="10" stroke-linecap="round" stroke-linejoin="round"/>
<path d="M123.067 59.6556C120.081 59.6556 117.331 58.9636 114.818 57.5795C112.304 56.1954 110.283 54.1558 108.753 51.4605C107.26 48.7288 106.513 45.3779 106.513 41.4078C106.513 37.4741 107.278 34.1233 108.808 31.3551C110.374 28.5506 112.432 26.4198 114.981 24.9629C117.567 23.4696 120.354 22.7229 123.34 22.7229C125.635 22.7229 127.693 23.1964 129.514 24.1434C131.335 25.054 132.847 26.1285 134.049 27.3668L129.787 32.5024C128.877 31.6647 127.912 30.9909 126.892 30.481C125.908 29.9346 124.779 29.6615 123.504 29.6615C121.902 29.6615 120.427 30.1167 119.079 31.0273C117.768 31.9379 116.712 33.2491 115.91 34.961C115.145 36.6728 114.763 38.7307 114.763 41.1346C114.763 44.7769 115.546 47.6179 117.112 49.6576C118.678 51.6972 120.773 52.7171 123.395 52.7171C124.852 52.7171 126.145 52.3893 127.274 51.7337C128.44 51.078 129.46 50.295 130.334 49.3844L134.595 54.4107C131.608 57.9073 127.766 59.6556 123.067 59.6556ZM139.35 59V31.9015H147.381V59H139.35ZM143.338 27.9132C141.991 27.9132 140.898 27.5307 140.06 26.7659C139.223 26.001 138.804 24.9811 138.804 23.7063C138.804 22.4315 139.223 21.4117 140.06 20.6468C140.898 19.8819 141.991 19.4995 143.338 19.4995C144.686 19.4995 145.779 19.8819 146.616 20.6468C147.454 21.4117 147.873 22.4315 147.873 23.7063C147.873 24.9811 147.454 26.001 146.616 26.7659C145.779 27.5307 144.686 27.9132 143.338 27.9132ZM154.449 59V31.9015H161.005L161.552 36.6546H161.77C162.753 34.8335 163.937 33.4859 165.321 32.6117C166.705 31.7011 168.089 31.2459 169.473 31.2459C170.238 31.2459 170.876 31.3005 171.386 31.4098C171.896 31.4826 172.333 31.6101 172.697 31.7922L171.386 38.7307C170.912 38.585 170.439 38.4758 169.965 38.4029C169.528 38.3301 169.018 38.2937 168.435 38.2937C167.416 38.2937 166.341 38.6761 165.212 39.441C164.119 40.1694 163.209 41.4442 162.48 43.2654V59H154.449ZM187.485 59.6556C184.972 59.6556 182.695 59.1093 180.656 58.0166C178.652 56.8875 177.05 55.2667 175.848 53.1541C174.682 51.0052 174.099 48.4374 174.099 45.4507C174.099 42.4276 174.755 39.8598 176.066 37.7473C177.378 35.6348 179.108 34.0322 181.257 32.9395C183.405 31.8104 185.718 31.2459 188.195 31.2459C189.871 31.2459 191.346 31.519 192.62 32.0654C193.932 32.6117 195.097 33.3037 196.117 34.1415L192.347 39.3317C191.072 38.2754 189.852 37.7473 188.687 37.7473C186.756 37.7473 185.208 38.4393 184.043 39.8234C182.914 41.2075 182.349 43.0833 182.349 45.4507C182.349 47.7818 182.914 49.6576 184.043 51.078C185.208 52.4621 186.665 53.1541 188.414 53.1541C189.288 53.1541 190.144 52.972 190.981 52.6078C191.819 52.2072 192.584 51.7337 193.276 51.1873L196.445 56.4322C195.097 57.5977 193.64 58.4354 192.074 58.9454C190.508 59.4189 188.978 59.6556 187.485 59.6556ZM208.563 59.6556C205.794 59.6556 203.864 58.8361 202.771 57.1971C201.715 55.5216 201.187 53.318 201.187 50.5863V20.7015H209.218V50.9141C209.218 51.7519 209.364 52.3346 209.655 52.6624C209.983 52.9902 210.311 53.1541 210.639 53.1541C210.821 53.1541 210.966 53.1541 211.076 53.1541C211.221 53.1177 211.403 53.0813 211.622 53.0449L212.605 59C212.168 59.1821 211.604 59.3278 210.912 59.4371C210.256 59.5828 209.473 59.6556 208.563 59.6556ZM228.948 59.6556C226.362 59.6556 224.031 59.0911 221.955 57.962C219.879 56.8328 218.24 55.212 217.038 53.0995C215.836 50.987 215.235 48.4374 215.235 45.4507C215.235 42.5005 215.836 39.9691 217.038 37.8566C218.276 35.7441 219.879 34.1233 221.846 32.9941C223.813 31.8286 225.871 31.2459 228.02 31.2459C230.606 31.2459 232.736 31.8286 234.412 32.9941C236.124 34.1233 237.398 35.6712 238.236 37.638C239.11 39.5685 239.547 41.772 239.547 44.2488C239.547 44.9408 239.511 45.6328 239.438 46.3249C239.365 46.9805 239.292 47.4722 239.22 47.8H222.993C223.357 49.7668 224.177 51.2237 225.452 52.1707C226.727 53.0813 228.256 53.5366 230.041 53.5366C231.971 53.5366 233.92 52.9356 235.887 51.7337L238.564 56.5961C237.18 57.5431 235.632 58.2898 233.92 58.8361C232.208 59.3824 230.551 59.6556 228.948 59.6556ZM222.939 42.5005H232.718C232.718 41.0072 232.354 39.787 231.625 38.84C230.933 37.8566 229.786 37.3649 228.183 37.3649C226.945 37.3649 225.834 37.8019 224.851 38.6761C223.867 39.5138 223.23 40.7886 222.939 42.5005Z" fill="black"/>
</svg>
