<svg width="33" height="32" viewBox="0 0 33 32" fill="none" xmlns="http://www.w3.org/2000/svg">
<rect x="0.427734" width="32" height="32" fill="#333333"/>
<path d="M22.6017 13.0476C22.1826 13.2338 21.7403 13.3502 21.2748 13.42C21.7403 13.1407 22.1128 12.6984 22.2758 12.163C21.8335 12.419 21.3446 12.6053 20.8092 12.7216C20.3902 12.2793 19.7849 12 19.1331 12C17.876 12 16.8517 13.0243 16.8517 14.2813C16.8517 14.4676 16.875 14.6305 16.9216 14.7935C15.036 14.7004 13.3366 13.7925 12.1959 12.3957C12.0097 12.7449 11.8933 13.1174 11.8933 13.5364C11.8933 14.3279 12.2891 15.0263 12.9176 15.4453C12.5451 15.422 12.1959 15.3289 11.87 15.1659V15.1892C11.87 16.3066 12.6615 17.2378 13.7091 17.4473C13.5228 17.4938 13.3133 17.5171 13.1038 17.5171C12.9641 17.5171 12.8012 17.4938 12.6615 17.4706C12.9641 18.3785 13.8022 19.0535 14.8032 19.0535C14.0117 19.6588 13.034 20.0313 11.9632 20.0313C11.7769 20.0313 11.5907 20.0313 11.4277 20.008C12.452 20.6598 13.6392 21.0323 14.9429 21.0323C19.1564 21.0323 21.461 17.5404 21.461 14.5141C21.461 14.421 21.461 14.3046 21.461 14.2115C21.9033 13.9089 22.299 13.5131 22.6017 13.0476Z" fill="white"/>
</svg>
